<?xml version="1.0" standalone="no"?>
<!DOCTYPE svg PUBLIC "-//W3C//DTD SVG 20010904//EN"
 "http://www.w3.org/TR/2001/REC-SVG-20010904/DTD/svg10.dtd">
<svg version="1.0" xmlns="http://www.w3.org/2000/svg"
 width="800.000000pt" height="479.000000pt" viewBox="0 0 800.000000 479.000000"
 preserveAspectRatio="xMidYMid meet">

<g transform="translate(0.000000,479.000000) scale(0.100000,-0.100000)"
fill="#000000" stroke="none">
<path d="M5592 4121 c-260 -329 -632 -816 -828 -1082 -196 -266 -359 -485
-363 -486 -3 -1 -163 218 -356 487 l-350 489 -77 0 c-43 1 -78 -2 -78 -5 0 -3
174 -246 386 -540 212 -295 383 -541 381 -548 -3 -8 -190 -266 -416 -575 -226
-309 -411 -564 -411 -566 0 -3 35 -5 78 -5 l79 0 378 520 c209 286 382 520
386 520 4 0 176 -234 384 -520 l377 -520 79 0 c43 0 79 3 79 6 0 3 -185 260
-410 571 -226 311 -412 568 -413 572 -2 6 501 734 1506 2183 37 54 66 98 64
98 -1 0 -215 -269 -475 -599z"/>
<path d="M10 2410 l0 -1121 68 3 67 3 5 1030 5 1030 56 -80 c30 -44 350 -507
709 -1030 553 -803 723 -1041 1099 -1540 244 -324 450 -597 459 -605 16 -16
-328 498 -1525 2280 l-770 1145 -86 3 -87 3 0 -1121z"/>
<path d="M1890 2410 l0 -1120 760 0 760 0 0 60 0 60 -690 0 -690 0 0 495 0
495 645 0 645 0 0 55 0 55 -645 0 -645 0 0 450 0 450 685 0 685 0 0 60 0 60
-755 0 -755 0 0 -1120z"/>
<path d="M5390 3470 l0 -60 390 0 390 0 2 -1057 3 -1058 68 -3 67 -3 0 1061 0
1060 395 0 395 0 0 60 0 60 -855 0 -855 0 0 -60z"/>
<path d="M7735 1935 c-83 -30 -123 -111 -89 -182 23 -46 56 -66 152 -91 83
-22 112 -44 112 -82 0 -40 -32 -63 -93 -67 -57 -4 -117 22 -117 52 0 11 -11
15 -40 15 -47 0 -50 -12 -17 -60 62 -93 217 -106 305 -25 35 32 37 37 37 95 0
56 -3 64 -31 89 -20 19 -60 36 -115 50 -106 29 -129 43 -129 81 0 79 151 98
191 24 16 -30 79 -35 79 -6 0 42 -56 96 -117 111 -54 14 -79 13 -128 -4z"/>
<path d="M7449 1768 c0 -196 -9 -236 -52 -251 -37 -12 -85 8 -93 39 -5 20 -12
24 -45 24 -38 0 -39 -1 -33 -27 17 -73 63 -107 145 -108 67 0 104 21 131 76
15 29 18 63 18 227 l0 192 -35 0 -35 0 -1 -172z"/>
<path d="M7057 1532 c-46 -51 19 -115 67 -66 21 21 20 40 -4 64 -25 25 -42 25
-63 2z"/>
</g>
</svg>
