<?xml version="1.0" standalone="no"?>
<!DOCTYPE svg PUBLIC "-//W3C//DTD SVG 20010904//EN"
 "http://www.w3.org/TR/2001/REC-SVG-20010904/DTD/svg10.dtd">
<svg version="1.0" xmlns="http://www.w3.org/2000/svg"
 width="200.000000pt" height="200.000000pt" viewBox="0 0 200.000000 200.000000"
 preserveAspectRatio="xMidYMid meet">
<metadata>
Created by potrace 1.16, written by Peter Selinger 2001-2019
</metadata>
<g transform="translate(0.000000,200.000000) scale(0.100000,-0.100000)"
fill="#000000" stroke="none">
<path d="M593 1673 l-393 -226 0 -456 0 -457 392 -225 c215 -123 399 -224 408
-224 9 0 193 101 408 224 l392 225 0 457 0 456 -395 227 c-217 124 -400 226
-407 225 -7 0 -190 -102 -405 -226z m147 -238 c16 -8 133 -132 261 -275 128
-143 236 -260 241 -260 4 0 8 107 8 238 0 216 2 240 19 268 42 69 146 63 176
-10 22 -52 22 -740 0 -792 -25 -61 -108 -79 -185 -39 -14 7 -133 134 -265 282
l-240 270 -5 -252 c-4 -215 -7 -255 -22 -277 -42 -63 -144 -54 -173 16 -22 52
-22 740 0 792 25 61 109 78 185 39z"/>
</g>
</svg>
