<?xml version="1.0" standalone="no"?>
<!DOCTYPE svg PUBLIC "-//W3C//DTD SVG 20010904//EN"
 "http://www.w3.org/TR/2001/REC-SVG-20010904/DTD/svg10.dtd">
<svg version="1.0" xmlns="http://www.w3.org/2000/svg"
 width="2400.000000pt" height="3061.000000pt" viewBox="0 0 2400.000000 3061.000000"
 preserveAspectRatio="xMidYMid meet">
<metadata>
Created by potrace 1.16, written by Peter Selinger 2001-2019
</metadata>
<g transform="translate(0.000000,3061.000000) scale(0.100000,-0.100000)"
fill="#000000" stroke="none">
<path d="M20682 30396 l-1262 -211 5 -25 c2 -14 451 -2693 995 -5955 545
-3261 993 -5931 994 -5933 2 -2 582 94 1290 213 707 118 1288 215 1291 215 3
0 5 6 5 13 1 6 -446 2686 -992 5955 l-992 5942 -36 -1 c-19 -1 -603 -96 -1298
-213z"/>
<path d="M12773 27187 c-678 -486 -1061 -767 -1058 -775 10 -26 7028 -9813
7034 -9810 34 14 2129 1526 2127 1534 -7 18 -7029 9814 -7035 9813 -3 0 -484
-343 -1068 -762z"/>
<path d="M7946 22358 c-105 -163 -1335 -2215 -1332 -2223 2 -5 1308 -797 2902
-1760 1594 -962 3918 -2365 5163 -3118 1246 -752 2268 -1364 2272 -1360 14 15
1342 2218 1346 2233 3 11 -1464 901 -5151 3127 -2835 1712 -5161 3116 -5169
3119 -10 3 -21 -3 -31 -18z"/>
<path d="M5140 16497 c0 -2 -159 -567 -354 -1257 -195 -690 -351 -1258 -348
-1262 12 -11 11612 -3281 11619 -3275 8 8 716 2518 711 2522 -6 6 -11597 3275
-11612 3275 -9 0 -16 -1 -16 -3z"/>
<path d="M7 9719 c-4 -1680 -7 -4554 -7 -6386 l0 -3333 10000 0 10000 0 0
6355 0 6355 -1220 0 -1220 0 0 -5105 0 -5105 -7660 0 -7661 0 6 508 c7 522 75
9300 75 9582 l0 157 -312 7 c-172 3 -691 9 -1154 12 l-841 7 -6 -3054z"/>
<path d="M4049 11308 c-2 -5 -256 -2613 -255 -2614 1 -1 2690 -261 5976 -578
3286 -317 5991 -579 6011 -582 l37 -5 5 43 c14 97 249 2569 245 2573 -2 2
-2688 263 -5968 579 -3281 317 -5984 578 -6007 581 -24 4 -44 5 -44 3z"/>
<path d="M3760 5430 l0 -1280 6010 0 6010 0 0 1280 0 1280 -6010 0 -6010 0 0
-1280z"/>
</g>
</svg>
